<svg xmlns="http://www.w3.org/2000/svg" viewBox="0 0 96 96"><path fill="#777777" d="M87.3 48c0-1-0.1-1.9-0.1-2.9 3.8-1.2 6.9-2.4 8.8-3.4l-0.7-4c-2.2-0.3-5.5-0.4-9.5-0.2 -0.5-1.9-1.2-3.7-2-5.5 3.2-2.5 5.6-4.6 7.1-6.2l-2-3.5c-2.2 0.4-5.3 1.5-9 3 -1.1-1.6-2.4-3.1-3.8-4.5 2.1-3.4 3.7-6.2 4.5-8.3l-3.1-2.6c-1.9 1.2-4.4 3.2-7.4 5.8 -1.6-1.1-3.3-2-5.1-2.9 0.8-3.9 1.3-7.1 1.4-9.3l-3.8-1.4c-1.4 1.7-3.1 4.5-5 8 -1.9-0.5-3.8-0.9-5.8-1C51.4 5.2 50.7 2.1 50 0h-4.1c-0.7 2.1-1.3 5.2-1.9 9.2 -2 0.2-3.9 0.6-5.8 1 -1.9-3.5-3.6-6.3-5-8l-3.8 1.4c0.1 2.2 0.6 5.4 1.4 9.3 -1.8 0.9-3.5 1.8-5.1 2.9 -3-2.7-5.5-4.7-7.4-5.8l-3.1 2.6c0.8 2 2.4 4.9 4.5 8.3 -1.4 1.4-2.6 2.9-3.8 4.5 -3.7-1.5-6.8-2.5-9-3l-2 3.5c1.5 1.6 3.9 3.8 7.1 6.2 -0.8 1.8-1.5 3.6-2 5.5 -4-0.1-7.3-0.1-9.5 0.2L0 41.6c2 1 5 2.2 8.8 3.4C8.8 46.1 8.7 47 8.7 48c0 1 0.1 1.9 0.1 2.9C5 52.1 2 53.3 0 54.4l0.7 4c2.2 0.3 5.5 0.4 9.5 0.2 0.5 1.9 1.2 3.7 2 5.5 -3.2 2.5-5.6 4.6-7.1 6.2l2 3.5c2.2-0.4 5.3-1.5 9-3 1.1 1.6 2.4 3.1 3.8 4.5 -2.1 3.4-3.7 6.2-4.5 8.3l3.1 2.6c1.9-1.2 4.4-3.2 7.4-5.8 1.6 1.1 3.3 2 5.1 2.9 -0.8 3.9-1.3 7.1-1.4 9.3l3.8 1.4c1.4-1.7 3.1-4.5 5-8 1.9 0.5 3.8 0.9 5.8 1 0.6 3.9 1.2 7.1 1.9 9.2h4.1c0.7-2.1 1.3-5.2 1.9-9.2 2-0.2 3.9-0.6 5.8-1 1.9 3.5 3.6 6.3 5 8l3.8-1.4c-0.1-2.2-0.6-5.4-1.4-9.3 1.8-0.9 3.5-1.8 5.1-2.9 3 2.7 5.5 4.7 7.4 5.8l3.1-2.6c-0.8-2-2.4-4.9-4.5-8.3 1.4-1.4 2.6-2.9 3.8-4.5 3.7 1.5 6.8 2.6 9 3l2-3.5c-1.5-1.6-3.9-3.8-7.1-6.2 0.8-1.8 1.5-3.6 2-5.5 4 0.1 7.3 0.1 9.5-0.2L96 54.4c-2-1-5-2.2-8.8-3.4C87.2 49.9 87.3 49 87.3 48zM48 81c-18.2 0-33-14.8-33-33 0-18.2 14.8-33 33-33 18.2 0 33 14.8 33 33C81 66.2 66.2 81 48 81zM48 27c-11.6 0-21 9.4-21 21s9.4 21 21 21 21-9.4 21-21S59.6 27 48 27zM48 57c-5 0-9-4-9-9s4-9 9-9 9 4 9 9S53 57 48 57z"/></svg>